<svg width="279" height="69" viewBox="0 0 279 69" fill="none" xmlns="http://www.w3.org/2000/svg">
<path d="M68.6758 31.4141C67.6914 31.4141 66.7539 31.2266 65.8633 30.8516C64.9961 30.4531 64.2344 29.9375 63.5781 29.3047C62.9219 28.6484 62.4062 27.8867 62.0312 27.0195C61.6562 26.1289 61.4688 25.1914 61.4688 24.207V9.79297C61.4688 8.80859 61.6562 7.88281 62.0312 7.01562C62.4062 6.125 62.9219 5.36328 63.5781 4.73047C64.2344 4.07422 64.9961 3.55859 65.8633 3.18359C66.7539 2.78516 67.6914 2.58594 68.6758 2.58594H93.1445C94.1289 2.58594 95.0547 2.78516 95.9219 3.18359C96.8125 3.55859 97.5859 4.07422 98.2422 4.73047C98.8984 5.36328 99.4141 6.125 99.7891 7.01562C100.164 7.88281 100.352 8.80859 100.352 9.79297V16.2969H93.1445V9.79297H68.6758V24.207H93.1445C94.1289 24.207 95.0547 24.3945 95.9219 24.7695C96.8125 25.1445 97.5859 25.6602 98.2422 26.3164C98.8984 26.9727 99.4141 27.7461 99.7891 28.6367C100.164 29.5039 100.352 30.4297 100.352 31.4141V45.793C100.352 46.7773 100.164 47.7148 99.7891 48.6055C99.4141 49.4727 98.8984 50.2344 98.2422 50.8906C97.5859 51.5469 96.8125 52.0625 95.9219 52.4375C95.0547 52.8125 94.1289 53 93.1445 53H67.9727C66.9883 53 66.0508 52.8125 65.1602 52.4375C64.293 52.0625 63.5312 51.5469 62.875 50.8906C62.2188 50.2344 61.7031 49.4727 61.3281 48.6055C60.9531 47.7148 60.7656 46.7773 60.7656 45.793V39.3242H67.9727V45.793H93.1445V31.4141H68.6758ZM112.656 22.4844C112.656 21.5234 112.832 20.6211 113.184 19.7773C113.559 18.9336 114.051 18.207 114.66 17.5977C115.293 16.9648 116.031 16.4727 116.875 16.1211C117.719 15.7461 118.609 15.5586 119.547 15.5586H138.848C139.809 15.5586 140.711 15.7461 141.555 16.1211C142.398 16.4727 143.125 16.9648 143.734 17.5977C144.367 18.207 144.859 18.9336 145.211 19.7773C145.586 20.6211 145.773 21.5234 145.773 22.4844V68.1172H138.848V46.3906C138.824 47.3047 138.613 48.1602 138.215 48.957C137.84 49.7539 137.336 50.457 136.703 51.0664C136.094 51.6523 135.379 52.1211 134.559 52.4727C133.738 52.8242 132.871 53 131.957 53H119.547C118.609 53 117.719 52.8242 116.875 52.4727C116.031 52.0977 115.293 51.6055 114.66 50.9961C114.051 50.3633 113.559 49.625 113.184 48.7812C112.832 47.9375 112.656 47.0352 112.656 46.0742V22.4844ZM138.848 46.0742V22.4844H119.547V46.0742H138.848ZM157.305 15.5586H164.195V46.0742H183.496V15.5586H190.422V53H183.496V46.6719C183.426 47.5391 183.191 48.3594 182.793 49.1328C182.395 49.9062 181.879 50.5859 181.246 51.1719C180.637 51.7344 179.934 52.1797 179.137 52.5078C178.34 52.8359 177.496 53 176.605 53H164.195C163.258 53 162.367 52.8242 161.523 52.4727C160.68 52.0977 159.941 51.6055 159.309 50.9961C158.699 50.3633 158.207 49.625 157.832 48.7812C157.48 47.9375 157.305 47.0352 157.305 46.0742V15.5586ZM201.953 36.6523C201.953 35.6914 202.129 34.8008 202.48 33.9805C202.855 33.1367 203.348 32.3984 203.957 31.7656C204.59 31.1328 205.328 30.6406 206.172 30.2891C207.016 29.9141 207.906 29.7266 208.844 29.7266H226.703V22.4844H204.098V15.5586H226.703C227.664 15.5586 228.566 15.7461 229.41 16.1211C230.254 16.4727 230.98 16.9648 231.59 17.5977C232.223 18.207 232.715 18.9336 233.066 19.7773C233.441 20.6211 233.629 21.5234 233.629 22.4844V53H226.703V46.6719C226.633 47.5391 226.398 48.3594 226 49.1328C225.602 49.9062 225.086 50.5859 224.453 51.1719C223.844 51.7344 223.141 52.1797 222.344 52.5078C221.547 52.8359 220.703 53 219.812 53H208.844C207.906 53 207.016 52.8242 206.172 52.4727C205.328 52.0977 204.59 51.6055 203.957 50.9961C203.348 50.3633 202.855 49.625 202.48 48.7812C202.129 47.9375 201.953 47.0352 201.953 46.0742V36.6523ZM208.844 46.0742H226.703V36.6523H208.844V46.0742ZM245.195 22.4844C245.195 21.5234 245.371 20.6211 245.723 19.7773C246.098 18.9336 246.59 18.207 247.199 17.5977C247.832 16.9648 248.57 16.4727 249.414 16.1211C250.258 15.7461 251.148 15.5586 252.086 15.5586H271.387V1.14453H278.312V53H271.387V46.6719C271.316 47.5391 271.082 48.3594 270.684 49.1328C270.285 49.9062 269.77 50.5859 269.137 51.1719C268.527 51.7344 267.824 52.1797 267.027 52.5078C266.23 52.8359 265.387 53 264.496 53H252.086C251.148 53 250.258 52.8242 249.414 52.4727C248.57 52.0977 247.832 51.6055 247.199 50.9961C246.59 50.3633 246.098 49.625 245.723 48.7812C245.371 47.9375 245.195 47.0352 245.195 46.0742V22.4844ZM252.086 46.0742H271.387V22.4844H252.086V46.0742Z" fill="#6E9AED"/>
<g clip-path="url(#clip0)">
<path d="M56.7881 6.53249C47.2342 -2.15036 31.7228 -2.16995 22.1425 6.48893C12.8984 14.8438 12.5073 28.3006 21.253 37.0851L19.3821 38.7807C17.8706 37.4106 15.4197 37.4103 13.908 38.7803C13.9079 38.7804 13.9077 38.7806 13.9075 38.7807L1.13396 50.3576C-0.377744 51.7276 -0.378067 53.9488 1.13347 55.3189C1.13364 55.3191 1.1338 55.3192 1.13396 55.3194L2.95839 56.9729C4.46993 58.3424 6.92014 58.3424 8.43168 56.9729L21.2053 45.3959C22.717 44.026 22.7173 41.8047 21.2057 40.4347C21.2056 40.4345 21.2054 40.4344 21.2053 40.4342L23.0761 38.7386C33.1144 46.9604 48.6059 46.2502 57.6776 37.1525C66.4401 28.3647 66.0486 14.8903 56.7881 6.53249ZM19.3821 43.7412L6.60854 55.3182C6.10469 55.7747 5.28796 55.7747 4.78411 55.3182L2.95968 53.6635C2.4568 53.207 2.4568 52.4677 2.95968 52.0112L15.7333 40.4342C16.2436 39.992 17.0474 39.992 17.5577 40.4342L19.3821 42.0889C19.885 42.5454 19.885 43.2847 19.3821 43.7412ZM54.965 36.3004C46.3989 44.0637 32.5107 44.0636 23.945 36.3C15.3793 28.5364 15.3794 15.9493 23.9455 8.186C32.5113 0.422875 46.3991 0.422875 54.965 8.186C63.517 15.9548 63.517 28.5316 54.965 36.3004Z" fill="#6E9AED"/>
<path d="M53.1392 9.83862L51.3148 11.4921C57.854 17.4332 57.854 27.0503 51.3148 32.9913L53.1392 34.6449C60.6866 27.7908 60.6866 16.6927 53.1392 9.83862Z" fill="#6E9AED"/>
</g>
<defs>
<clipPath id="clip0">
<rect width="64" height="64" fill="white"/>
</clipPath>
</defs>
</svg>
