<?xml version="1.0"?>
<svg xmlns="http://www.w3.org/2000/svg" viewBox="0 0 64 64" width="512px" height="512px"><g><g id="Team-Multiplayer-Gamer-Computer-Player"><path d="M16.58,51.14,14,50.28v-.31A5,5,0,0,0,15.58,48H17a3,3,0,0,0,3-3,2.986,2.986,0,0,0-1-2.22V42A8,8,0,1,0,3,42v.78A2.986,2.986,0,0,0,2,45a3,3,0,0,0,3,3H6.42A5,5,0,0,0,8,49.97v.31l-2.58.86A4.987,4.987,0,0,0,2,55.88V61a1,1,0,0,0,1,1H19a1,1,0,0,0,1-1V55.88A4.987,4.987,0,0,0,16.58,51.14ZM14,46a3,3,0,0,1-6,0v-.04a6.92,6.92,0,0,0,3.7-1.35A2.968,2.968,0,0,0,14,45.97Zm-2,4.9V51a1,1,0,0,1-2,0v-.1a5.05,5.05,0,0,0,2,0Zm2-6.93a.988.988,0,0,1-.66-.52l-.45-.9a1,1,0,0,0-.73-.54,1.011,1.011,0,0,0-.87.28l-.24.25A4.979,4.979,0,0,1,8,43.95V43a3,3,0,0,1,6,0ZM18,45a.949.949,0,0,1-.31.71A.928.928,0,0,1,17,46H16V44h1A1,1,0,0,1,18,45ZM6,46H5a.949.949,0,0,1-.71-.31A.928.928,0,0,1,4,45a1,1,0,0,1,1-1H6Zm.1-4H5a6.009,6.009,0,0,1,6-6,6,6,0,0,1,6,6H15.9a5,5,0,0,0-9.8,0ZM18,60H4V55.88a2.988,2.988,0,0,1,2.05-2.84l2.25-.75a2.987,2.987,0,0,0,5.4,0l2.25.75A2.988,2.988,0,0,1,18,55.88Z" data-original="#000000" class="active-path" data-old_color="#000000" fill="#FFFFFF"/><path d="M58.58,51.14,56,50.28v-.31A5,5,0,0,0,57.58,48H59a3,3,0,0,0,3-3,2.986,2.986,0,0,0-1-2.22V42a8,8,0,1,0-16,0v.78A2.986,2.986,0,0,0,44,45a3,3,0,0,0,3,3h1.42A5,5,0,0,0,50,49.97v.31l-2.58.86A4.987,4.987,0,0,0,44,55.88V61a1,1,0,0,0,1,1H61a1,1,0,0,0,1-1V55.88A4.987,4.987,0,0,0,58.58,51.14ZM56,46a3,3,0,0,1-6,0v-.04a6.92,6.92,0,0,0,3.7-1.35A2.968,2.968,0,0,0,56,45.97Zm-2,4.9V51a1,1,0,0,1-2,0v-.1a5.05,5.05,0,0,0,2,0Zm2-6.93a.988.988,0,0,1-.66-.52l-.45-.9a1,1,0,0,0-.73-.54,1.011,1.011,0,0,0-.87.28l-.24.25A4.979,4.979,0,0,1,50,43.95V43a3,3,0,0,1,6,0ZM60,45a.949.949,0,0,1-.31.71A.928.928,0,0,1,59,46H58V44h1A1,1,0,0,1,60,45ZM48,46H47a.949.949,0,0,1-.71-.31A.928.928,0,0,1,46,45a1,1,0,0,1,1-1h1Zm.1-4H47a6.009,6.009,0,0,1,6-6,6,6,0,0,1,6,6H57.9a5,5,0,0,0-9.8,0ZM60,60H46V55.88a2.988,2.988,0,0,1,2.05-2.84l2.25-.75a2.987,2.987,0,0,0,5.4,0l2.25.75A2.988,2.988,0,0,1,60,55.88Z" data-original="#000000" class="active-path" data-old_color="#000000" fill="#FFFFFF"/><path d="M37.58,19.14,35,18.28v-.31A5,5,0,0,0,36.58,16H38a3,3,0,0,0,3-3,2.986,2.986,0,0,0-1-2.22V10a8,8,0,1,0-16,0v.78A2.986,2.986,0,0,0,23,13a3,3,0,0,0,3,3h1.42A5,5,0,0,0,29,17.97v.31l-2.58.86A4.987,4.987,0,0,0,23,23.88V29a1,1,0,0,0,1,1H40a1,1,0,0,0,1-1V23.88A4.987,4.987,0,0,0,37.58,19.14ZM35,14a3,3,0,0,1-6,0v-.04a6.92,6.92,0,0,0,3.7-1.35A2.968,2.968,0,0,0,35,13.97Zm-2,4.9V19a1,1,0,0,1-2,0v-.1a5.05,5.05,0,0,0,2,0Zm2-6.93a.988.988,0,0,1-.66-.52l-.45-.9a1,1,0,0,0-.73-.54,1.011,1.011,0,0,0-.87.28l-.24.25A4.979,4.979,0,0,1,29,11.95V11a3,3,0,0,1,6,0ZM39,13a.949.949,0,0,1-.31.71A.928.928,0,0,1,38,14H37V12h1A1,1,0,0,1,39,13ZM27,14H26a.949.949,0,0,1-.71-.31A.928.928,0,0,1,25,13a1,1,0,0,1,1-1h1Zm.1-4H26a6.009,6.009,0,0,1,6-6,6,6,0,0,1,6,6H36.9a5,5,0,0,0-9.8,0ZM39,28H25V23.88a2.988,2.988,0,0,1,2.05-2.84l2.25-.75a2.987,2.987,0,0,0,5.4,0l2.25.75A2.988,2.988,0,0,1,39,23.88Z" data-original="#000000" class="active-path" data-old_color="#000000" fill="#FFFFFF"/><path d="M35,43a3,3,0,0,0-2-2.816V34H31v6.184A3,3,0,0,0,29,43a2.951,2.951,0,0,0,.3,1.285l-5.008,5.008,1.414,1.414L30.715,45.7a2.893,2.893,0,0,0,2.57,0l5.008,5.008,1.414-1.414L34.7,44.285A2.951,2.951,0,0,0,35,43Zm-4,0a1,1,0,1,1,1,1A1,1,0,0,1,31,43Z" data-original="#000000" class="active-path" data-old_color="#000000" fill="#FFFFFF"/></g></g> </svg>
