<?xml version="1.0"?>
<svg xmlns="http://www.w3.org/2000/svg" viewBox="0 0 64 64" width="512px" height="512px"><g><g id="Multiplayer-Gamer-Computer-Player-Team"><rect x="13" y="17" width="2" height="2" data-original="#000000" class="active-path" data-old_color="#000000" fill="#FFFFFF"/><rect x="19" y="17" width="2" height="2" data-original="#000000" class="active-path" data-old_color="#000000" fill="#FFFFFF"/><rect x="43" y="17" width="2" height="2" data-original="#000000" class="active-path" data-old_color="#000000" fill="#FFFFFF"/><rect x="49" y="17" width="2" height="2" data-original="#000000" class="active-path" data-old_color="#000000" fill="#FFFFFF"/><path d="M59,54a3.009,3.009,0,0,0,3-3V37a2.994,2.994,0,0,0-2.23-2.89,7.016,7.016,0,0,0-3.92-4.6L51,27.35V25.92A8.1,8.1,0,0,0,53.24,24H56a2.006,2.006,0,0,0,2-2V19.62a3.932,3.932,0,0,0,0-5.24V13a11,11,0,1,0-22,0v1.38A3.981,3.981,0,0,0,39,21c.09,0,.17-.02.26-.02A7.993,7.993,0,0,0,43,25.92v1.43l-4.85,2.16a7.016,7.016,0,0,0-3.92,4.6A2.994,2.994,0,0,0,32,37a2.994,2.994,0,0,0-2.23-2.89,7.016,7.016,0,0,0-3.92-4.6L21,27.35V25.92A8.1,8.1,0,0,0,23.24,24H26a2.006,2.006,0,0,0,2-2V19.62a3.932,3.932,0,0,0,0-5.24V13A11,11,0,1,0,6,13v1.38A3.981,3.981,0,0,0,9,21c.09,0,.17-.02.26-.02A7.993,7.993,0,0,0,13,25.92v1.43L8.15,29.51a7.016,7.016,0,0,0-3.92,4.6A2.994,2.994,0,0,0,2,37V51a3.009,3.009,0,0,0,3,3h8v2H10a1,1,0,0,0-1,1v3H2v2H62V60H55V57a1,1,0,0,0-1-1H51V54ZM56,22H54.41a7.14,7.14,0,0,0,.33-1.02c.09,0,.17.02.26.02a4.091,4.091,0,0,0,1-.14Zm1-5a2.006,2.006,0,0,1-2,2V15A2.006,2.006,0,0,1,57,17ZM39,19a2,2,0,0,1,0-4Zm0-6a4.091,4.091,0,0,0-1,.14V13a9,9,0,0,1,18,0v.14A4.091,4.091,0,0,0,55,13c-.09,0-.17.02-.26.02a7.986,7.986,0,0,0-15.48,0C39.17,13.02,39.09,13,39,13Zm13.91,1h-.5l-1.7-1.71a1.018,1.018,0,0,0-1.16-.18L45.76,14H41.09a5.993,5.993,0,0,1,11.82,0ZM41,19V16h5a1,1,0,0,0,.45-.11l3.35-1.67,1.49,1.49A1.033,1.033,0,0,0,52,16h1v3a5.984,5.984,0,0,1-.81,3H47v2h3.31A5.995,5.995,0,0,1,41,19Zm8,7.74V28a2,2,0,0,1-4,0V26.74a7.822,7.822,0,0,0,4,0ZM38.97,31.33l4.3-1.91a3.986,3.986,0,0,0,7.46,0l4.3,1.91A5.026,5.026,0,0,1,57.63,34H36.37A5.026,5.026,0,0,1,38.97,31.33ZM26,22H24.41a7.14,7.14,0,0,0,.33-1.02c.09,0,.17.02.26.02a4.091,4.091,0,0,0,1-.14Zm1-5a2.006,2.006,0,0,1-2,2V15A2.006,2.006,0,0,1,27,17ZM9,19a2,2,0,0,1,0-4Zm0-6a4.091,4.091,0,0,0-1,.14V13a9,9,0,0,1,18,0v.14A4.091,4.091,0,0,0,25,13c-.09,0-.17.02-.26.02a7.986,7.986,0,0,0-15.48,0C9.17,13.02,9.09,13,9,13Zm13.91,1h-.5l-1.7-1.71a1.018,1.018,0,0,0-1.16-.18L15.76,14H11.09a5.993,5.993,0,0,1,11.82,0ZM11,19V16h5a1,1,0,0,0,.45-.11l3.35-1.67,1.49,1.49A1.033,1.033,0,0,0,22,16h1v3a5.984,5.984,0,0,1-.81,3H17v2h3.31A5.995,5.995,0,0,1,11,19Zm8,7.74V28a2,2,0,0,1-4,0V26.74a7.822,7.822,0,0,0,4,0ZM8.97,31.33l4.3-1.91a3.986,3.986,0,0,0,7.46,0l4.3,1.91A5.026,5.026,0,0,1,27.63,34H6.37A5.026,5.026,0,0,1,8.97,31.33ZM5,52a1,1,0,0,1-1-1V37a1,1,0,0,1,1-1H29a1,1,0,0,1,1,1V51a1,1,0,0,1-1,1H21V47a1,1,0,0,0-1-1H14a1,1,0,0,0-1,1v5Zm14-4v8H15V48Zm4,12H11V58H23Zm16-3v3H25V57a1,1,0,0,0-1-1H21V54h8a3.009,3.009,0,0,0,3-3,3.009,3.009,0,0,0,3,3h8v2H40A1,1,0,0,0,39,57Zm14,1v2H41V58Zm-8-2V48h4v8Zm5-10H44a1,1,0,0,0-1,1v5H35a1,1,0,0,1-1-1V37a1,1,0,0,1,1-1H59a1,1,0,0,1,1,1V51a1,1,0,0,1-1,1H51V47A1,1,0,0,0,50,46Z" data-original="#000000" class="active-path" data-old_color="#000000" fill="#FFFFFF"/></g></g> </svg>
